<svg xmlns="http://www.w3.org/2000/svg" viewBox="0 0 1800 520" role="img" aria-label="California banner with Golden Gate Bridge and Hollywood hills">
  <defs>
    <linearGradient id="bg" x1="0" x2="1" y1="0" y2="1">
      <stop offset="0%" stop-color="#24130d"/>
      <stop offset="55%" stop-color="#1a100b"/>
      <stop offset="100%" stop-color="#130b08"/>
    </linearGradient>
    <radialGradient id="sun" cx="74%" cy="24%" r="34%">
      <stop offset="0%" stop-color="#ffbb80"/>
      <stop offset="100%" stop-color="#ff7146"/>
    </radialGradient>
  </defs>
  <rect width="1800" height="520" fill="url(#bg)"/>
  <circle cx="1320" cy="130" r="170" fill="url(#sun)" opacity="0.36"/>

  <path d="M0 335C230 300 440 305 610 332C780 360 1030 360 1220 328C1410 296 1610 302 1800 332V520H0Z" fill="#180f0b"/>
  <path d="M980 282L1110 248L1240 286L1240 298L980 298Z" fill="#f8c6a3" opacity="0.52"/>
  <text x="1000" y="282" font-size="40" letter-spacing="4" fill="#ffd6b8" opacity="0.48" font-family="Arial, sans-serif">HOLLYWOOD</text>

  <g stroke="#f5b892" stroke-width="8" fill="none" opacity="0.66">
    <path d="M280 315H825"/>
    <path d="M304 172C380 112 724 112 760 172"/>
    <path d="M304 200C390 148 700 148 760 200"/>
    <path d="M304 230C404 184 686 184 760 230"/>
  </g>
  <g fill="#f7bea0" opacity="0.7">
    <rect x="322" y="170" width="26" height="170"/>
    <rect x="718" y="170" width="26" height="170"/>
    <rect x="300" y="246" width="70" height="16"/>
    <rect x="696" y="246" width="70" height="16"/>
  </g>

  <g fill="#f6b58f" opacity="0.5">
    <rect x="500" y="278" width="22" height="58"/>
    <rect x="532" y="288" width="18" height="48"/>
    <rect x="562" y="296" width="14" height="40"/>
  </g>

  <g stroke="#f7d0b8" stroke-width="2.5" opacity="0.42">
    <path d="M80 410H1720"/>
    <path d="M80 446H1720"/>
  </g>
</svg>
