<svg xmlns="http://www.w3.org/2000/svg" viewBox="0 0 1800 520" role="img" aria-label="Illinois banner with Chicago skyline and Cloud Gate">
  <defs>
    <linearGradient id="bg" x1="0" x2="1" y1="0" y2="1">
      <stop offset="0%" stop-color="#141820"/>
      <stop offset="52%" stop-color="#1a1f2a"/>
      <stop offset="100%" stop-color="#101419"/>
    </linearGradient>
    <linearGradient id="bean" x1="0" x2="1" y1="0" y2="1">
      <stop offset="0%" stop-color="#f5d9c8"/>
      <stop offset="100%" stop-color="#d6a98e"/>
    </linearGradient>
  </defs>
  <rect width="1800" height="520" fill="url(#bg)"/>

  <g fill="#f5c7ad" opacity="0.43">
    <rect x="170" y="260" width="90" height="170"/>
    <rect x="292" y="222" width="98" height="208"/>
    <path d="M442 430V188H520V430Z"/>
    <rect x="560" y="250" width="84" height="180"/>
    <rect x="676" y="282" width="66" height="148"/>
    <rect x="1060" y="300" width="74" height="130"/>
    <rect x="1160" y="252" width="96" height="178"/>
    <rect x="1290" y="202" width="110" height="228"/>
    <rect x="1434" y="268" width="78" height="162"/>
  </g>
  <g fill="#f8d4bd" opacity="0.55">
    <rect x="466" y="164" width="30" height="24"/>
    <rect x="474" y="140" width="14" height="24"/>
    <rect x="476" y="116" width="10" height="24"/>
  </g>

  <ellipse cx="890" cy="372" rx="148" ry="42" fill="url(#bean)" opacity="0.62"/>
  <ellipse cx="890" cy="372" rx="92" ry="22" fill="#b9866f" opacity="0.55"/>

  <g stroke="#f0b793" stroke-width="5" fill="none" opacity="0.45">
    <path d="M0 348H1800"/>
    <path d="M0 402H1800"/>
    <path d="M120 430H1680"/>
  </g>
</svg>
