<svg xmlns="http://www.w3.org/2000/svg" viewBox="0 0 1800 520" role="img" aria-label="Massachusetts banner with monument and harbor skyline">
  <defs>
    <linearGradient id="bg" x1="0" x2="1" y1="0" y2="1">
      <stop offset="0%" stop-color="#151822"/>
      <stop offset="58%" stop-color="#111622"/>
      <stop offset="100%" stop-color="#0d1119"/>
    </linearGradient>
    <radialGradient id="glow" cx="22%" cy="22%" r="28%">
      <stop offset="0%" stop-color="#ffca96"/>
      <stop offset="100%" stop-color="#e38755"/>
    </radialGradient>
  </defs>
  <rect width="1800" height="520" fill="url(#bg)"/>
  <circle cx="340" cy="120" r="132" fill="url(#glow)" opacity="0.32"/>

  <path d="M0 360C200 332 420 336 640 366C860 396 1060 390 1300 360C1540 330 1670 332 1800 344V520H0Z" fill="#0f1220"/>

  <g fill="#f3c4a7" opacity="0.46">
    <rect x="180" y="278" width="88" height="128"/>
    <rect x="300" y="252" width="94" height="154"/>
    <rect x="428" y="266" width="78" height="140"/>
    <rect x="1300" y="260" width="88" height="146"/>
    <rect x="1418" y="228" width="104" height="178"/>
    <rect x="1558" y="276" width="74" height="130"/>
  </g>

  <g fill="#ffd4be" opacity="0.62">
    <path d="M900 148L938 352H862Z"/>
    <rect x="872" y="352" width="56" height="16"/>
    <rect x="882" y="126" width="36" height="24"/>
  </g>

  <g stroke="#f1b692" stroke-width="4" fill="none" opacity="0.45">
    <path d="M0 392C180 372 360 372 540 392C720 412 900 412 1080 392C1260 372 1440 372 1620 392C1700 400 1750 402 1800 400"/>
    <path d="M0 430C180 410 360 410 540 430C720 450 900 450 1080 430C1260 410 1440 410 1620 430C1700 438 1750 440 1800 438"/>
  </g>
</svg>
