<svg xmlns="http://www.w3.org/2000/svg" viewBox="0 0 1800 520" role="img" aria-label="New Jersey banner with lighthouse and boardwalk">
  <defs>
    <linearGradient id="bg" x1="0" x2="1" y1="0" y2="1">
      <stop offset="0%" stop-color="#131b23"/>
      <stop offset="56%" stop-color="#102029"/>
      <stop offset="100%" stop-color="#0d151d"/>
    </linearGradient>
    <radialGradient id="sun" cx="72%" cy="20%" r="28%">
      <stop offset="0%" stop-color="#ffd0a4"/>
      <stop offset="100%" stop-color="#ed8559"/>
    </radialGradient>
  </defs>
  <rect width="1800" height="520" fill="url(#bg)"/>
  <circle cx="1300" cy="112" r="112" fill="url(#sun)" opacity="0.36"/>

  <path d="M0 360C240 324 520 328 780 360C1040 392 1310 392 1800 346V520H0Z" fill="#11131c"/>

  <g stroke="#f5bf9f" stroke-width="5" fill="none" opacity="0.52">
    <path d="M120 404H1680"/>
    <path d="M120 432H1680"/>
    <path d="M120 460H1680"/>
  </g>
  <g fill="#f7c8ab" opacity="0.4">
    <rect x="160" y="372" width="18" height="102"/>
    <rect x="220" y="368" width="18" height="106"/>
    <rect x="280" y="376" width="18" height="98"/>
    <rect x="340" y="370" width="18" height="104"/>
    <rect x="400" y="374" width="18" height="100"/>
    <rect x="460" y="370" width="18" height="104"/>
  </g>

  <g fill="#ffd7bf" opacity="0.68">
    <rect x="1420" y="210" width="40" height="178"/>
    <polygon points="1440,156 1472,210 1408,210"/>
    <rect x="1412" y="386" width="56" height="18"/>
    <rect x="1426" y="252" width="28" height="16" fill="#dd7b57" opacity="0.75"/>
    <rect x="1426" y="288" width="28" height="16" fill="#dd7b57" opacity="0.75"/>
    <rect x="1426" y="324" width="28" height="16" fill="#dd7b57" opacity="0.75"/>
  </g>

  <g stroke="#f0af8b" stroke-width="4" fill="none" opacity="0.44">
    <circle cx="980" cy="306" r="98"/>
    <path d="M980 208V404M882 306H1078M914 240L1046 372M1046 240L914 372"/>
  </g>
</svg>
